<mxfile host="app.diagrams.net" modified="2022-10-09T10:11:32.794Z" agent="5.0 (Macintosh; Intel Mac OS X 10_15_7) AppleWebKit/537.36 (KHTML, like Gecko) Chrome/106.0.0.0 Safari/537.36" etag="WFInGbku-rn8OKAy6Msw" version="20.4.0" type="github">
  <diagram id="27elkRxODpV1YcpeKZNU" name="Page-1">
    <mxGraphModel dx="839" dy="452" grid="1" gridSize="10" guides="1" tooltips="1" connect="1" arrows="1" fold="1" page="1" pageScale="1" pageWidth="827" pageHeight="1169" math="0" shadow="0">
      <root>
        <mxCell id="0" />
        <mxCell id="1" parent="0" />
        <mxCell id="dfOqo-lrsm1BcfWt9DeN-3" value="" style="edgeStyle=orthogonalEdgeStyle;rounded=0;orthogonalLoop=1;jettySize=auto;html=1;" edge="1" parent="1" source="dfOqo-lrsm1BcfWt9DeN-1" target="dfOqo-lrsm1BcfWt9DeN-2">
          <mxGeometry relative="1" as="geometry" />
        </mxCell>
        <mxCell id="dfOqo-lrsm1BcfWt9DeN-5" value="" style="edgeStyle=orthogonalEdgeStyle;rounded=0;orthogonalLoop=1;jettySize=auto;html=1;" edge="1" parent="1" source="dfOqo-lrsm1BcfWt9DeN-1" target="dfOqo-lrsm1BcfWt9DeN-4">
          <mxGeometry relative="1" as="geometry" />
        </mxCell>
        <mxCell id="dfOqo-lrsm1BcfWt9DeN-6" style="edgeStyle=orthogonalEdgeStyle;rounded=0;orthogonalLoop=1;jettySize=auto;html=1;entryX=-0.001;entryY=0.635;entryDx=0;entryDy=0;entryPerimeter=0;" edge="1" parent="1" source="dfOqo-lrsm1BcfWt9DeN-1" target="dfOqo-lrsm1BcfWt9DeN-4">
          <mxGeometry relative="1" as="geometry">
            <Array as="points">
              <mxPoint x="252" y="480" />
              <mxPoint x="252" y="570" />
              <mxPoint x="294" y="570" />
            </Array>
          </mxGeometry>
        </mxCell>
        <mxCell id="dfOqo-lrsm1BcfWt9DeN-1" value="This i sdh fshd kfs" style="rounded=1;whiteSpace=wrap;html=1;" vertex="1" parent="1">
          <mxGeometry x="90" y="450" width="120" height="60" as="geometry" />
        </mxCell>
        <mxCell id="dfOqo-lrsm1BcfWt9DeN-2" value="sdfgsdfg" style="whiteSpace=wrap;html=1;rounded=1;" vertex="1" parent="1">
          <mxGeometry x="294" y="450" width="120" height="60" as="geometry" />
        </mxCell>
        <mxCell id="dfOqo-lrsm1BcfWt9DeN-4" value="xdfgdfg" style="whiteSpace=wrap;html=1;rounded=1;" vertex="1" parent="1">
          <mxGeometry x="294" y="540" width="120" height="60" as="geometry" />
        </mxCell>
      </root>
    </mxGraphModel>
  </diagram>
</mxfile>
